<?xml version="1.0" encoding="UTF-8" standalone="no"?>
<!-- Created with Inkscape (http://www.inkscape.org/) -->

<svg
   width="180mm"
   height="200mm"
   viewBox="0 0 180 200"
   version="1.1"
   id="svg1"
   xml:space="preserve"
   inkscape:version="1.4 (e7c3feb100, 2024-10-09)"
   sodipodi:docname="arieslogo.svg"
   xmlns:inkscape="http://www.inkscape.org/namespaces/inkscape"
   xmlns:sodipodi="http://sodipodi.sourceforge.net/DTD/sodipodi-0.dtd"
   xmlns="http://www.w3.org/2000/svg"
   xmlns:svg="http://www.w3.org/2000/svg"><sodipodi:namedview
     id="namedview1"
     pagecolor="#ffffff"
     bordercolor="#000000"
     borderopacity="0.25"
     inkscape:showpageshadow="2"
     inkscape:pageopacity="0.0"
     inkscape:pagecheckerboard="0"
     inkscape:deskcolor="#d1d1d1"
     inkscape:document-units="mm"
     inkscape:zoom="0.59890048"
     inkscape:cx="222.90849"
     inkscape:cy="445.81697"
     inkscape:window-width="1536"
     inkscape:window-height="888"
     inkscape:window-x="0"
     inkscape:window-y="0"
     inkscape:window-maximized="1"
     inkscape:current-layer="layer1" /><defs
     id="defs1" /><g
     inkscape:label="Layer 1"
     inkscape:groupmode="layer"
     id="layer1"><path
       style="fill:#000000;stroke-width:0.916463"
       d="m 170.92145,198.13384 c -4.50921,-4.81737 -9.32172,-12.01131 -13.14037,-19.64285 -1.83751,-3.67225 -3.20769,-5.89297 -6.53118,-10.58544 -3.0603,-4.32086 -6.15066,-7.60814 -9.85049,-10.47823 -1.47861,-1.14703 -2.72723,-2.1897 -2.7747,-2.31705 -0.16598,-0.44532 2.92312,1.29205 5.97768,3.36193 3.93958,2.66958 6.62602,4.92254 8.43441,7.07345 0.7895,0.93903 1.47099,1.60649 1.51438,1.48323 0.17276,-0.49078 -1.38338,-2.86948 -2.98866,-4.56847 -2.9082,-3.07792 -7.85605,-6.53087 -11.21953,-7.82976 -1.69717,-0.65541 -3.35013,-1.02332 -9.63384,-2.14432 -3.79699,-0.6774 -10.43303,-2.31269 -12.46197,-3.07096 -3.9574,-1.47902 -7.78513,-4.07823 -10.00315,-6.79265 l -1.48895,-1.82216 -1.23817,0.15217 c -4.60449,0.56593 -25.623474,0.82161 -31.331137,0.38112 -8.301085,-0.64061 -14.288523,-1.69406 -21.256815,-3.74 -2.431414,-0.71388 -5.511922,-1.53968 -6.845567,-1.83511 -4.066705,-0.90084 -13.396824,-3.5396 -18.921127,-5.3513 -2.877254,-0.94359 -5.348801,-1.67648 -5.492318,-1.62864 -0.515328,0.17179 4.381006,5.7591 9.732802,11.10634 4.107964,4.10446 5.649456,5.55312 8.652111,8.13109 1.863059,1.59954 4.532598,3.25881 4.804907,2.98651 0.06827,-0.0682 0.02456,-0.47158 -0.09724,-0.89617 -0.231929,-0.8087 -0.0735,-0.98045 0.432562,-0.46891 0.164917,0.1667 2.333434,1.39427 4.818928,2.7279 l 4.51908,2.42483 1.676797,3.24589 c 1.304687,2.52557 1.604765,3.29155 1.352206,3.45163 -0.642175,0.40704 -2.385995,0.19958 -4.488058,-0.53395 C 45.880968,158.44388 34.069682,150.86151 24.325478,142.49853 15.512712,134.93496 13.671529,133.08954 9.2000856,127.33837 6.9948578,124.502 6.5478981,123.56441 6.7888001,122.2803 c 0.2202997,-1.17433 0.9381364,-1.58006 2.3162585,-1.30914 3.1500214,0.6192 11.5207404,-0.15398 23.9721574,-2.21425 1.648652,-0.27279 3.149948,-0.55446 3.336202,-0.62593 0.496566,-0.19055 0.661797,-1.14527 0.445676,-2.57505 -0.285599,-1.88935 -0.322458,-11.39277 -0.05334,-13.74763 0.337287,-2.951229 0.33507,-4.65509 -0.0095,-7.274434 -0.37399,-2.843208 -1.542489,-7.308244 -2.503713,-9.567088 -1.027558,-2.414716 -2.895731,-5.48945 -3.476374,-5.721599 -0.27174,-0.10864 -1.530686,-0.318324 -2.797642,-0.465967 -3.926871,-0.457608 -10.673223,-3.0197 -12.66532,-4.809974 -1.12901,-1.014616 -3.338419,-4.255716 -3.338419,-4.897287 0,-0.924757 0.7945,-1.154497 4.970851,-1.437371 l 3.152257,-0.213509 4.970861,-2.436638 c 6.130515,-3.005092 11.521593,-5.213126 13.620715,-5.578677 0.87326,-0.152068 3.1768,-0.427786 5.118979,-0.612701 4.011973,-0.38199 5.400736,-0.868211 7.145141,-2.501633 l 1.030545,-0.964971 -0.0036,-9.312138 c -0.0019,-5.121683 -0.0877,-9.444308 -0.190358,-9.605844 -0.102651,-0.161528 -0.594437,-0.464079 -1.092847,-0.672328 -1.260018,-0.526471 -2.826904,-2.001464 -3.352788,-3.156153 -0.625404,-1.373201 -0.600101,-3.785177 0.05389,-5.136134 0.921798,-1.904163 3.382702,-3.471939 5.449858,-3.471939 1.549475,0 3.208245,0.745048 4.330885,1.945248 1.19066,1.272913 1.591183,2.371128 1.593189,4.368496 0.0019,1.751389 -0.752939,3.246416 -2.180972,4.320391 -0.600145,0.451341 -1.170855,1.029481 -1.268256,1.284745 -0.0974,0.255262 -0.0974,1.543176 0,2.862022 l 0.177088,2.397899 1.818611,-1.689335 c 2.808548,-2.608914 4.850016,-4.216381 6.243883,-4.916495 0.700159,-0.351684 1.276551,-0.719415 1.280859,-0.817192 0.130146,-2.954449 0.106408,-17.302927 -0.02923,-17.673435 -0.105121,-0.28709 -0.793456,-0.996341 -1.52965,-1.576124 -3.761375,-2.962193 -3.404167,-8.1505661 0.692479,-10.0582117 1.550152,-0.7218432 3.91789,-0.7735419 5.344485,-0.1166798 3.089177,1.4223696 4.399316,5.0552208 2.939492,8.1508325 -0.656299,1.391714 -1.294908,2.035547 -2.778883,2.801638 -0.578489,0.298638 -1.09839,0.664371 -1.155321,0.812746 -0.05692,0.148366 -0.07469,3.70593 -0.03941,7.905686 l 0.06415,7.635918 5.455816,-5.352238 c 3.000649,-2.943735 7.419863,-7.228887 9.82043,-9.522574 l 4.364644,-4.17033 v -2.358996 c 0,-2.1416281 0.0619,-2.4644057 0.672517,-3.5030429 1.095334,-1.8633436 3.288992,-3.1016598 5.486277,-3.0969947 3.120955,0.00638 5.843947,2.9517903 5.843947,6.3207545 0,3.9512681 -4.267066,6.8030271 -7.975552,5.3302151 l -1.307364,-0.519222 -0.632257,0.555587 c -0.347727,0.305568 -2.893022,2.783886 -5.656218,5.507359 -2.763192,2.72348 -5.143587,5.025701 -5.289772,5.116055 -0.146183,0.09036 -2.012215,1.89935 -4.146732,4.020011 l -3.880947,3.855744 7.351897,0.139659 c 6.001232,0.113996 7.454056,0.07826 7.907974,-0.194344 0.892936,-0.536297 7.758257,-7.009699 13.165784,-12.414164 3.850257,-3.848073 5.334417,-5.512728 6.486367,-7.275306 0.82155,-1.257049 1.49374,-2.467698 1.49374,-2.690334 0,-0.222636 -0.23002,-0.612665 -0.51115,-0.866719 -0.98701,-0.8919929 -1.45608,-1.7981638 -1.69332,-3.2713052 -0.61409,-3.8131196 1.93338,-6.75020081 5.86611,-6.76328858 2.84465,-0.009451 4.499,0.92096438 5.49125,3.08833418 0.51229,1.1189743 0.58943,1.5793694 0.49225,2.9376505 -0.20394,2.8502274 -1.49541,4.4600231 -4.28418,5.3401771 -1.24446,0.392759 -1.84641,0.728707 -2.20301,1.229509 -0.26987,0.378993 -0.49067,0.762313 -0.49067,0.851825 0,0.437436 -2.16043,3.777313 -3.53881,5.470726 -0.85431,1.04958 -1.5533,1.96772 -1.5533,2.040313 0,0.07258 4.36467,0.131979 9.69925,0.131979 h 9.69923 v -1.771 c 0,-2.15696 0.73705,-3.84635 2.23901,-5.131964 1.29379,-1.107446 2.30482,-1.413389 4.29843,-1.300738 3.38327,0.191165 5.42628,2.483634 5.42369,6.085958 -0.003,4.51612 -3.69123,6.887862 -8.77373,5.642333 -1.53889,-0.377123 -2.91951,-0.405708 -14.11391,-0.292223 l -12.40817,0.125795 -0.63856,0.57651 c -0.35121,0.317077 -2.111631,1.940125 -3.912039,3.606777 -5.18257,4.797529 -5.33328,4.931462 -7.759355,6.895763 -1.266944,1.025806 -2.382459,2.001235 -2.478903,2.167619 -0.09645,0.166385 -0.241968,2.199695 -0.323386,4.518466 -0.08138,2.318781 -0.151832,4.270518 -0.156459,4.337199 -0.0046,0.06673 0.0046,0.737753 0.02026,1.491261 l 0.02868,1.37001 0.804687,-0.763807 c 0.44256,-0.420098 1.670111,-1.445043 2.727885,-2.27766 2.472818,-1.946438 3.584302,-2.992178 10.82649,-10.186268 l 5.99352,-5.953694 18.16108,0.132209 c 9.98859,0.07267 18.28142,0.05783 18.4285,-0.03308 0.14707,-0.09092 0.49573,-0.904465 0.77478,-1.807933 0.56792,-1.838682 1.71332,-3.306069 3.1546,-4.041355 2.7076,-1.381313 6.45142,-0.461504 8.10748,1.991896 2.19191,3.247257 1.06111,7.645686 -2.4115,9.379992 -0.95585,0.477377 -1.41888,0.550959 -3.01114,0.478548 -1.66453,-0.0757 -2.04737,-0.187902 -3.31866,-0.972606 -2.9213,-1.803149 -4.38868,-1.548445 -7.6847,1.333896 -1.23107,1.076551 -6.05738,5.735501 -10.72514,10.353229 -4.66776,4.617729 -8.88516,8.768785 -9.37203,9.22457 -0.48684,0.455783 -1.90609,1.812791 -3.15385,3.015585 -1.62062,1.562213 -2.5533,2.272159 -3.26511,2.485431 -1.56052,0.467542 -28.19422,0.426072 -28.839695,-0.04491 -0.415254,-0.30299 -0.48496,-0.738501 -0.591929,-3.697836 L 82.455477,55.130686 H 77.727103 72.99872 v 3.625308 3.625309 l 1.561983,0.596442 c 1.400585,0.534821 1.999411,1.020528 5.795661,4.700907 3.746969,3.632603 4.306111,4.088261 4.863762,3.963475 1.765729,-0.395106 2.921703,-0.406965 4.464204,-0.04582 1.391681,0.325868 3.434402,0.385043 12.97267,0.375824 8.28602,-0.0082 11.49646,-0.08927 11.97568,-0.303102 0.3601,-0.160684 3.14258,-2.691167 6.18326,-5.62329 9.73678,-9.389129 11.32844,-10.793849 12.23042,-10.793849 0.49794,0 1.63938,-1.049395 2.45821,-2.259988 1.19259,-1.763156 4.93949,-2.666239 7.30852,-1.761506 2.15875,0.824441 4.02099,3.647733 4.02099,6.096102 0,2.765575 -2.26743,5.372207 -5.21002,5.989425 -2.64868,0.555571 -5.15839,-0.58363 -6.82904,-3.099825 -0.48984,-0.737745 -0.97322,-1.310835 -1.07416,-1.273554 -0.101,0.03729 -2.2286,2.03189 -4.7281,4.432456 -2.4995,2.400557 -4.6651,4.473771 -4.81245,4.607134 -0.14736,0.133363 -1.80387,1.684386 -3.68113,3.446709 -1.87725,1.762321 -3.71042,3.31723 -4.0737,3.45535 -0.41166,0.156513 -4.01196,0.251679 -9.5559,0.252586 -4.89247,7.97e-4 -9.782692,0.07057 -10.867196,0.154974 l -1.971808,0.153516 -0.10715,1.966731 c -0.12443,2.285099 -0.691237,3.756647 -1.913088,4.966717 -2.890005,2.862179 -7.687963,2.071932 -9.857306,-1.623561 -0.571396,-0.973383 -0.663619,-1.391428 -0.651385,-2.952542 0.0082,-1.000236 0.102787,-2.276146 0.210997,-2.835353 l 0.196747,-1.016752 -3.45197,-3.347904 c -1.898583,-1.84135 -3.844867,-3.553376 -4.325065,-3.804505 -0.814708,-0.426055 -1.481692,-0.453558 -9.975172,-0.4113 -5.006144,0.02492 -9.593106,0.152592 -10.193251,0.283746 -0.600137,0.131146 -2.127772,0.601027 -3.394728,1.044172 -1.266965,0.443148 -3.094667,0.996426 -4.061564,1.229509 -0.966886,0.233085 -1.757976,0.511616 -1.757976,0.618953 0,0.10733 0.527258,0.832121 1.171696,1.610629 2.24738,2.714931 3.322693,4.61946 6.960027,12.327108 5.380162,11.40073 7.380883,14.655613 11.371246,18.499353 1.209483,1.16504 2.96288,2.56748 3.896435,3.11654 3.583637,2.10769 10.623387,5.17223 11.911623,5.18537 0.734665,0.007 4.79312,0.75736 9.669158,1.78651 1.600371,0.33779 5.583087,0.8918 8.850509,1.23116 3.267421,0.33936 7.086501,0.84521 8.486821,1.12411 1.95997,0.39036 3.77406,0.53139 7.88063,0.61264 5.23771,0.10374 6.19743,0.20258 15.03382,1.54971 1.8671,0.28465 4.54046,0.52668 5.9408,0.53785 2.89665,0.0231 4.73789,-0.47895 8.27074,-2.25524 2.2631,-1.13785 2.25761,-1.15014 0.8201,1.83849 -1.37355,2.85564 -4.94207,5.96414 -7.68575,6.69497 -1.02537,0.27314 -1.19116,0.25847 -1.63675,-0.14478 -0.66558,-0.60235 -0.63347,-0.39653 0.33725,2.16049 0.45817,1.2069 1.59628,4.55775 2.52911,7.44632 0.93284,2.88858 1.9609,5.67103 2.2846,6.18327 1.30353,2.06276 2.51824,2.9221 7.81094,5.52571 2.80065,1.37771 5.34962,2.75073 5.66441,3.05117 0.83881,0.8006 1.16386,1.75823 1.73405,5.1089 0.52274,3.07163 2.28012,10.7196 3.11463,13.55469 1.52576,5.18342 3.80494,10.37057 6.03898,13.74403 0.63197,0.95429 2.4453,3.44679 4.02965,5.53888 2.06813,2.73094 3.10294,3.89672 3.66881,4.13315 1.03031,0.43049 1.99939,1.60326 2.19753,2.6594 0.30353,1.61798 -0.5416,5.41598 -1.41441,6.35637 -0.79817,0.85996 -1.54604,0.69598 -2.76495,-0.60621 z M 89.66932,79.511192 c 0.532227,-0.59561 0.665257,-0.97795 0.659107,-1.894201 -0.0102,-1.638912 -0.822507,-2.4816 -2.389738,-2.4816 -2.126936,0 -3.375242,2.156686 -2.38317,4.117394 0.724703,1.432295 2.940477,1.571479 4.113801,0.258407 z m -28.309633,-17.221225 7.759391,-0.127306 0.06745,-3.177542 c 0.04994,-2.352654 -0.01301,-3.243685 -0.242487,-3.432311 -0.189058,-0.155422 -2.441266,-0.287384 -5.776111,-0.338422 -5.066328,-0.07753 -5.518685,-0.04949 -6.183267,0.383073 -0.918563,0.597918 -1.201511,0.982557 -1.70794,2.321785 -0.226944,0.600146 -0.833367,1.806771 -1.347613,2.681398 -0.954304,1.623103 -1.184181,2.353138 -0.631874,2.006742 0.166705,-0.104552 3.794826,-0.247389 8.062484,-0.317417 z m 80.619133,-3.114599 c 0.33654,-0.249655 0.71331,-0.85398 0.83725,-1.342949 0.6463,-2.549738 -2.66156,-4.382912 -4.45807,-2.470612 -0.65514,0.697366 -0.92921,2.474772 -0.50411,3.269107 0.64675,1.208457 2.83964,1.497895 4.12493,0.544454 z M 98.972356,58.510693 c 1.269254,-0.948548 1.059134,-1.130559 -1.088834,-0.943188 -1.079311,0.09416 -3.464529,0.184072 -5.300457,0.199817 -2.965865,0.02548 -3.446252,-0.0286 -4.308006,-0.484809 -0.533447,-0.282399 -1.223594,-0.591952 -1.533667,-0.687906 -0.551094,-0.170545 -0.559864,-0.148091 -0.390687,0.99943 0.09519,0.64564 0.294322,1.257205 0.44252,1.359024 0.14818,0.10183 2.798665,0.156385 5.889957,0.121239 5.24297,-0.05957 5.66544,-0.09746 6.289174,-0.563607 z m 12.727504,-0.447766 c 1.39558,-1.240753 4.22952,-3.942936 12.34107,-11.767241 9.91616,-9.565035 11.4556,-11.120475 11.28279,-11.400088 -0.10032,-0.162223 -1.71703,-0.25452 -4.45858,-0.25452 h -4.30129 l -3.23288,3.264863 c -3.72955,3.766463 -10.33031,10.266652 -16.68804,16.433809 -2.4339,2.360946 -4.42529,4.412 -4.42529,4.557892 0,0.184777 1.27697,0.24213 4.20826,0.189022 l 4.20825,-0.07626 z M 89.48745,52.61109 c 0,-1.472491 -0.364057,-1.897997 -1.401241,-1.637675 -0.853854,0.214305 -1.719403,1.463491 -1.531843,2.210794 0.156373,0.623029 0.695209,0.821352 2.08441,0.767189 l 0.848674,-0.03308 z m 13.55366,0.37157 c 1.02673,-0.84189 3.69557,-3.422148 15.46544,-14.952134 1.977,-1.936689 3.59454,-3.600711 3.59454,-3.69783 0,-0.316592 -13.38594,-0.186288 -14.12152,0.137462 -0.36512,0.160683 -2.92935,2.474129 -5.6983,5.140982 -10.319832,9.939328 -9.815985,9.410355 -9.834735,10.325096 -0.0269,1.307755 0.319317,3.453352 0.614477,3.808994 0.210327,0.25343 1.202131,0.307566 4.553963,0.248537 l 4.285075,-0.07543 z M 56.707876,51.805372 c 0.399926,-0.222251 3.528704,-0.279385 12.77492,-0.233296 6.734913,0.03354 12.370889,-0.02493 12.524398,-0.130009 0.190688,-0.130532 0.314529,-1.919294 0.390963,-5.646871 0.0855,-4.170908 0.205379,-5.736153 0.508958,-6.646136 0.656591,-1.968169 0.966282,-1.840689 -4.471757,-1.840689 h -4.868847 l 0.04847,1.394262 c 0.107102,3.080196 0.04473,3.393425 -0.88018,4.417141 -1.569783,1.73755 -4.439788,2.713227 -6.437568,2.188487 -2.361845,-0.620372 -3.740509,-2.163064 -4.03419,-4.514178 l -0.175969,-1.408742 -2.909743,2.568353 c -4.142405,3.656396 -3.881397,3.263516 -3.814522,5.741523 0.07488,2.773218 0.289565,4.404485 0.579755,4.404485 0.129614,0 0.474004,-0.132446 0.765309,-0.29433 z m 12.97393,-10.403948 c 1.281499,-0.800311 1.176317,-3.120824 -0.177722,-3.920677 -1.242402,-0.733904 -2.660198,-0.462336 -3.755986,0.719416 -2.04715,2.20776 1.24046,4.883219 3.933708,3.201261 z m 82.057464,-9.168318 c 1.26899,-1.420113 1.16524,-2.856853 -0.27644,-3.828405 -1.16736,-0.786683 -2.66485,-0.753434 -3.49591,0.07763 -1.24337,1.243376 -1.14938,2.75838 0.24724,3.984617 0.76889,0.675104 1.00528,0.755889 1.87171,0.6397 0.69554,-0.09327 1.18929,-0.35413 1.6534,-0.873526 z m -97.336318,0.21943 c 0.937111,-0.571342 1.512392,-1.764275 1.324592,-2.746713 -0.171168,-0.895404 -1.531163,-2.249606 -2.465268,-2.454765 -0.478054,-0.105007 -1.031241,-0.01768 -1.601135,0.25276 -1.838022,0.872198 -2.090132,3.198264 -0.504174,4.651683 1.020949,0.935626 2.044886,1.029326 3.245985,0.297035 z M 132.42414,21.229738 c 0.49769,-0.428098 0.67812,-0.843549 0.7667,-1.76541 0.10384,-1.080913 0.0418,-1.284827 -0.60042,-1.972312 -1.1766,-1.259558 -2.55038,-1.342885 -3.84074,-0.232946 -0.50151,0.431379 -0.67608,0.841432 -0.76873,1.805753 -0.10989,1.143344 -0.0582,1.309361 0.61869,1.986196 0.62697,0.626989 0.92252,0.738569 1.95609,0.738569 0.92224,0 1.3754,-0.135784 1.86841,-0.55985 z M 68.774012,11.624049 c 0.548887,-0.548889 0.708784,-0.92924 0.708784,-1.6859637 0,-1.908002 -1.021637,-2.9398299 -2.910806,-2.9398299 -0.833717,0 -1.166219,0.1488334 -1.841817,0.8244321 -1.786242,1.7862414 -0.415433,4.4870875 2.285851,4.5036935 0.841231,0.0056 1.18969,-0.134033 1.757988,-0.702332 z m 26.667625,0.459121 c 0.655127,-0.350622 1.198974,-1.507271 1.198974,-2.5500145 0,-1.1086181 -0.779247,-2.2374896 -1.854641,-2.6868317 -0.700724,-0.292783 -0.928774,-0.2910135 -1.656001,0.012833 -1.467911,0.6133436 -2.280235,2.7130438 -1.565961,4.0476982 0.611067,1.141812 2.737045,1.786726 3.877629,1.176299 z M 113.30413,7.7864405 c 1.17674,-1.4361986 0.82249,-3.2845028 -0.77479,-4.0424541 -1.24141,-0.5890946 -2.31808,-0.3500167 -3.26122,0.7241706 -1.25026,1.4239637 -0.79612,3.4303768 0.97006,4.2857577 0.71785,0.3476687 0.90474,0.3522233 1.66791,0.040684 0.47271,-0.1929621 1.10184,-0.646638 1.39804,-1.0081654 z"
       id="path1"
       sodipodi:nodetypes="csssssssssssscssssssssscsscssssssssssscsssssscssssccsssssscssscsssccscsssscsscsscsscsssscscssssscsssssssscssscsscssssccccsssccsssssssssssssscccccsssccssssssssssssssccssscscsscsssssssscssssssssssssssssssssssccsssssccssscsssccssssssscsssscssssscsssscssssscsssssscsccsscsssscscsscscssssssssssssssssscsssssssssssssscscsscsccssssss" /></g></svg>
